<svg width="41" height="41" viewBox="0 0 41 41" fill="none" xmlns="http://www.w3.org/2000/svg">
<circle cx="20.5" cy="20.5" r="20.5" fill="#C6C6C6"/>
<path d="M40.9969 20.112H20.4707V2.1254e-05C20.4806 7.08626e-06 20.4906 0 20.5005 0C31.6928 0 40.7901 8.96924 40.9969 20.112Z" fill="#D87EA8"/>
<path d="M38.1956 20.3503H20.4707V2.38674C20.4793 2.38673 20.4879 2.38672 20.4965 2.38672C30.1612 2.38672 38.017 10.3978 38.1956 20.3503Z" fill="#DF5C9A"/>
<path d="M0.000173569 20.888H20.5264V41C20.5164 41 20.5065 41 20.4965 41C9.30431 41 0.206964 32.0308 0.000173569 20.888Z" fill="#89CAEC"/>
<path d="M2.80152 20.6487H20.5264V38.6123C20.5178 38.6123 20.5092 38.6123 20.5006 38.6123C10.8359 38.6123 2.98009 30.6012 2.80152 20.6487Z" fill="#75ABC7"/>
<rect y="19.2168" width="15.5167" height="1.79039" fill="#6E6E6E"/>
<rect x="25.4238" y="19.2168" width="15.5764" height="1.79039" fill="#6E6E6E"/>
<circle cx="20.3808" cy="20.5" r="4.5" fill="#D9D9D9" stroke="#6E6E6E" stroke-width="2.16009"/>
</svg>
